# xmcd CD database file
#
# Track frame offsets:
#	150
#	17609
#	31944
#	56151
#	83216
#	104939
#	129843
#	152151
#	174035
#	194107
#	206677
#	222917
#	246201
#	261692
#
# Disc length: 3656 seconds
#
# Revision: 0
# Processed by: cddbd v1.5.2PL0 Copyright (c) Steve Scherf et al.
# Submitted via: CDex 1.51
#
DISCID=ce0e460e
DTITLE=Ken Wood Septet - Swing! with a gypsy touch
DYEAR=1900
DGENRE=Jazz
TTITLE0=Seven come eleven
TTITLE1=Solar guitar
TTITLE2=Avalon
TTITLE3=Je lève les yeux
TTITLE4=Rock rimmon
TTITLE5=Bean and the boys
TTITLE6=Fat foot
TTITLE7=Cotton tail
TTITLE8=Pick the pop corn
TTITLE9=Exit
TTITLE10=I´ll see you in my dreams
TTITLE11=Darn that dream
TTITLE12=Chorus menuet
TTITLE13=Limehouse blues
EXTD=
EXTT0=
EXTT1=
EXTT2=
EXTT3=
EXTT4=
EXTT5=
EXTT6=
EXTT7=
EXTT8=
EXTT9=
EXTT10=
EXTT11=
EXTT12=
EXTT13=
PLAYORDER=
